# This file uses centimeters as units for non-parametric coordinates.

mtllib bucket.mtl
g default
v -0.337409 0.135303 0.500000
v 0.500000 0.135303 0.360108
v -0.524843 1.135303 0.759673
v 0.500000 0.767385 0.500000
v -0.524843 1.135303 -0.759673
v 0.500000 0.767385 -0.500000
v -0.337409 0.135303 -0.500000
v 0.500000 0.135303 -0.360108
v -0.379486 1.135303 0.614316
v 0.404329 0.767385 0.404329
v 0.404329 0.767385 -0.404329
v -0.379486 1.135303 -0.614316
v -0.404329 0.535392 0.404329
v 0.404329 0.535392 0.404329
v 0.404329 0.535392 -0.404329
v -0.404329 0.535392 -0.404329
vt 0.375000 0.000000
vt 0.625000 0.000000
vt 0.375000 0.250000
vt 0.625000 0.250000
vt 0.375000 0.500000
vt 0.625000 0.500000
vt 0.375000 0.750000
vt 0.625000 0.750000
vt 0.375000 1.000000
vt 0.625000 1.000000
vt 0.875000 0.000000
vt 0.875000 0.250000
vt 0.125000 0.000000
vt 0.125000 0.250000
vt 0.375000 0.250000
vt 0.625000 0.250000
vt 0.625000 0.500000
vt 0.375000 0.500000
vt 0.375000 0.250000
vt 0.625000 0.250000
vt 0.625000 0.500000
vt 0.375000 0.500000
vn 0.163656 -0.216818 0.962396
vn 0.163656 -0.216818 0.962396
vn 0.163656 -0.216818 0.962396
vn 0.163656 -0.216818 0.962396
vn 0.000000 1.000000 0.000000
vn 0.000000 1.000000 0.000000
vn 0.000000 1.000000 0.000000
vn 0.000000 1.000000 0.000000
vn 0.163656 -0.216818 -0.962396
vn 0.163656 -0.216818 -0.962396
vn 0.163656 -0.216818 -0.962396
vn 0.163656 -0.216818 -0.962396
vn 0.000000 -1.000000 0.000000
vn 0.000000 -1.000000 0.000000
vn 0.000000 -1.000000 0.000000
vn 0.000000 -1.000000 0.000000
vn 1.000000 -0.000000 -0.000000
vn 1.000000 -0.000000 -0.000000
vn 1.000000 -0.000000 -0.000000
vn 1.000000 -0.000000 -0.000000
vn -0.982884 -0.184226 -0.000000
vn -0.982884 -0.184226 -0.000000
vn -0.982884 -0.184226 -0.000000
vn -0.982884 -0.184226 -0.000000
vn 0.393610 0.915690 0.081140
vn 0.393610 0.915690 0.081140
vn 0.393610 0.915690 0.081140
vn 0.393610 0.915690 0.081140
vn -0.000000 1.000000 0.000000
vn -0.000000 1.000000 0.000000
vn -0.000000 1.000000 0.000000
vn -0.000000 1.000000 0.000000
vn 0.393610 0.915690 -0.081139
vn 0.393610 0.915690 -0.081139
vn 0.393610 0.915690 -0.081139
vn 0.393610 0.915690 -0.081139
vn 0.000000 1.000000 0.000000
vn 0.000000 1.000000 0.000000
vn 0.000000 1.000000 0.000000
vn 0.000000 1.000000 0.000000
vn -0.070606 0.246112 -0.966666
vn -0.070606 0.246112 -0.966666
vn -0.070606 0.246112 -0.966666
vn -0.070606 0.246112 -0.966666
vn -1.000000 0.000000 0.000000
vn -1.000000 0.000000 0.000000
vn -1.000000 0.000000 0.000000
vn -1.000000 0.000000 0.000000
vn -0.070606 0.246112 0.966666
vn -0.070606 0.246112 0.966666
vn -0.070606 0.246112 0.966666
vn -0.070606 0.246112 0.966666
vn 0.999144 -0.041376 0.000000
vn 0.999144 -0.041376 0.000000
vn 0.999144 -0.041376 0.000000
vn 0.999144 -0.041376 0.000000
s off
g pCube1
usemtl initialShadingGroup
f 1/1/1 2/2/2 4/4/3 3/3/4
f 13/19/5 14/20/6 15/21/7 16/22/8
f 5/5/9 6/6/10 8/8/11 7/7/12
f 7/7/13 8/8/14 2/10/15 1/9/16
f 2/2/17 8/11/18 6/12/19 4/4/20
f 7/13/21 1/1/22 3/3/23 5/14/24
f 3/3/25 4/4/26 10/16/27 9/15/28
f 4/4/29 6/6/30 11/17/31 10/16/32
f 6/6/33 5/5/34 12/18/35 11/17/36
f 5/5/37 3/3/38 9/15/39 12/18/40
f 9/15/41 10/16/42 14/20/43 13/19/44
f 10/16/45 11/17/46 15/21/47 14/20/48
f 11/17/49 12/18/50 16/22/51 15/21/52
f 12/18/53 9/15/54 13/19/55 16/22/56
